<mxfile host="app.diagrams.net" modified="2023-10-02T18:00:53.235Z" agent="Mozilla/5.0 (iPad; CPU OS 16_6 like Mac OS X) AppleWebKit/605.1.15 (KHTML, like Gecko) CriOS/117.0.5938.108 Mobile/15E148 Safari/604.1" etag="jz-k47Tqea9e37p4gB-Z" version="22.0.1" type="github">
  <diagram name="Page-1" id="AMWITl3Yc3J7B5Upd5_C">
    <mxGraphModel dx="994" dy="972" grid="0" gridSize="10" guides="1" tooltips="1" connect="1" arrows="1" fold="1" page="0" pageScale="1" pageWidth="827" pageHeight="1169" math="0" shadow="0">
      <root>
        <mxCell id="0" />
        <mxCell id="1" parent="0" />
        <mxCell id="zHcuPWhFv8xHALAo5qRD-1" value="" style="rounded=0;whiteSpace=wrap;html=1;fontSize=16;" vertex="1" parent="1">
          <mxGeometry x="-65" y="-10" width="76" height="31" as="geometry" />
        </mxCell>
        <mxCell id="zHcuPWhFv8xHALAo5qRD-2" value="" style="ellipse;whiteSpace=wrap;html=1;fontSize=16;" vertex="1" parent="1">
          <mxGeometry x="89" y="-22" width="120" height="80" as="geometry" />
        </mxCell>
        <mxCell id="zHcuPWhFv8xHALAo5qRD-3" value="" style="ellipse;whiteSpace=wrap;html=1;fontSize=16;" vertex="1" parent="1">
          <mxGeometry x="87" y="86" width="120" height="80" as="geometry" />
        </mxCell>
        <mxCell id="zHcuPWhFv8xHALAo5qRD-4" value="" style="ellipse;whiteSpace=wrap;html=1;fontSize=16;" vertex="1" parent="1">
          <mxGeometry x="91" y="204" width="120" height="80" as="geometry" />
        </mxCell>
        <mxCell id="zHcuPWhFv8xHALAo5qRD-5" value="" style="shape=process;whiteSpace=wrap;html=1;backgroundOutline=1;fontSize=16;" vertex="1" parent="1">
          <mxGeometry x="346" y="-12" width="120" height="60" as="geometry" />
        </mxCell>
        <mxCell id="zHcuPWhFv8xHALAo5qRD-6" value="" style="shape=process;whiteSpace=wrap;html=1;backgroundOutline=1;fontSize=16;" vertex="1" parent="1">
          <mxGeometry x="343" y="100" width="120" height="60" as="geometry" />
        </mxCell>
        <mxCell id="zHcuPWhFv8xHALAo5qRD-7" value="Vertical Container" style="swimlane;whiteSpace=wrap;html=1;fontSize=16;" vertex="1" parent="1">
          <mxGeometry x="-15" y="333" width="286" height="25" as="geometry">
            <mxRectangle x="105" y="105" width="171" height="31" as="alternateBounds" />
          </mxGeometry>
        </mxCell>
      </root>
    </mxGraphModel>
  </diagram>
</mxfile>
